<?xml version="1.0" standalone="no"?>
<!DOCTYPE svg PUBLIC "-//W3C//DTD SVG 20010904//EN"
        "http://www.w3.org/TR/2001/REC-SVG-20010904/DTD/svg10.dtd">
<svg fill="currentColor" role="img" version="1.0" xmlns="http://www.w3.org/2000/svg"
     viewBox="0 0 771.000000 757.000000"
     preserveAspectRatio="xMidYMid meet">

    <g transform="translate(0.000000,757.000000) scale(0.100000,-0.100000)"
       stroke="none">
        <path d="M2115 7444 c-16 -2 -208 -5 -425 -8 -409 -4 -441 -7 -585 -52 -220
-69 -360 -142 -509 -265 -249 -206 -405 -475 -462 -799 -18 -101 -19 -209 -19
-2550 0 -2319 1 -2451 18 -2555 60 -362 268 -701 543 -885 182 -122 357 -192
579 -233 l120 -22 2460 0 2460 0 124 23 c137 25 325 83 422 132 366 184 603
510 702 965 l22 100 2 2405 c1 1323 -3 2441 -7 2486 -43 392 -214 723 -490
947 -168 136 -383 234 -645 294 -76 17 -182 18 -2180 19 -1155 0 -2113 -1
-2130 -2z m2000 -823 c248 -144 418 -231 650 -334 444 -196 931 -344 1438
-437 128 -23 165 -39 213 -92 66 -74 65 -61 64 -560 -1 -990 -62 -1492 -252
-2077 -187 -577 -566 -1129 -1088 -1587 -308 -270 -561 -437 -1026 -676 -287
-147 -256 -147 -536 -4 -560 286 -831 473 -1187 821 -368 360 -632 732 -824
1165 -186 419 -330 1045 -352 1531 -4 74 -8 148 -10 164 -3 17 -5 276 -5 577
-1 525 0 549 19 586 24 47 73 96 117 117 18 8 85 24 150 36 302 52 688 154
1014 267 387 134 783 324 1164 559 115 71 121 73 186 70 50 -3 75 -15 265
-126z"/>
        <path d="M3650 6244 c-289 -165 -495 -264 -800 -387 -368 -147 -779 -266
-1190 -345 l-95 -18 1 -484 c0 -521 10 -688 59 -1016 54 -364 166 -751 309
-1074 107 -240 272 -490 492 -745 287 -332 621 -608 1009 -832 111 -64 392
-203 411 -203 25 0 343 167 507 266 567 343 1086 885 1352 1414 196 387 342
947 380 1455 3 44 8 100 10 125 12 125 20 441 20 749 l0 345 -176 37 c-721
152 -1311 376 -1955 740 -67 38 -127 71 -135 73 -8 3 -97 -42 -199 -100z
m-342 -924 c170 -35 353 -144 465 -278 66 -78 114 -166 150 -275 28 -85 31
-103 31 -232 1 -163 -18 -247 -84 -374 -101 -193 -195 -272 -500 -415 l-25
-12 0 -249 0 -250 156 -2 c95 0 165 -6 178 -12 45 -24 56 -58 54 -163 -2 -178
-15 -188 -238 -188 l-156 0 3 -57 3 -58 163 -5 164 -5 29 -33 c28 -32 29 -35
29 -143 l0 -111 -34 -34 -34 -34 -311 0 c-199 0 -318 4 -334 11 -53 24 -52 4
-57 698 l-5 644 -50 17 c-211 72 -393 234 -485 433 -52 113 -71 193 -77 324
-7 141 10 220 79 361 86 174 206 294 381 380 161 78 329 99 505 62z m1363 -91
c193 -97 411 -285 537 -464 112 -158 207 -378 247 -570 35 -164 34 -458 0
-629 -87 -430 -343 -801 -703 -1018 -133 -80 -202 -90 -259 -36 -30 28 -45 82
-32 116 16 41 36 58 113 97 225 115 401 301 526 559 77 157 116 312 135 536 8
96 -18 322 -50 438 -33 116 -120 287 -200 393 -103 138 -277 284 -426 359 -97
50 -128 113 -90 187 24 48 72 76 116 67 17 -4 55 -19 86 -35z m-222 -505 c223
-101 406 -339 473 -614 27 -110 29 -297 4 -423 -54 -278 -213 -530 -422 -667
-125 -82 -210 -88 -268 -19 -58 68 -23 147 88 198 174 80 336 329 362 558 21
183 -4 343 -73 476 -54 106 -183 232 -284 280 -61 29 -79 43 -93 70 -21 45
-20 86 1 117 44 65 107 72 212 24z m-181 -570 c85 -66 127 -164 126 -299 -1
-103 -24 -178 -78 -248 -64 -84 -136 -108 -203 -67 -76 46 -76 149 -1 211 29
24 32 33 36 92 l4 66 -46 42 c-53 49 -73 100 -55 146 34 90 137 117 217 57z"/>
        <path d="M3084 4939 c-118 -15 -249 -110 -305 -221 -76 -150 -48 -339 69 -469
207 -230 597 -139 697 162 32 94 16 238 -33 319 -97 158 -250 232 -428 209z"/>
    </g>
</svg>
